<?xml version="1.0" encoding="utf-8"?>
<!-- Generator: Adobe Illustrator 24.2.0, SVG Export Plug-In . SVG Version: 6.00 Build 0)  -->
<svg version="1.1" id="Layer_1" xmlns="http://www.w3.org/2000/svg" xmlns:xlink="http://www.w3.org/1999/xlink" x="0px" y="0px"
	 viewBox="0 0 100 100" style="enable-background:new 0 0 100 100;" xml:space="preserve">
<style type="text/css">
	.st0{fill:#FFF434;}
</style>
<path class="st0" d="M52.8,39.9c-0.2,0.4-0.3,0.9-0.3,1.3c-0.1,0.5,0,1,0.1,1.5c0.1,0.3,0.1,0.6,0.2,0.9c0.5,1.3,1.5,2.4,2.8,3
	c0.7,0.3,1.4,0.5,2.2,0.5c0.9,0,1.9-0.3,2.7-0.7c0.4-0.2,0.8-0.6,1.2-0.9c0.3-0.3,0.6-0.7,0.8-1.1c0.1-0.1,0.1-0.2,0.2-0.3
	c0,0,10.6-23,10.6-23c0,0,0.3-0.9,0.4-1.3c0.4-2.3-0.7-4.7-3-5.7c-0.7-0.3-1.4-0.5-2.2-0.5c-1.6,0-3.1,0.7-4.1,2
	c-0.3,0.3-0.5,0.7-0.7,1.1c0,0,0,0,0,0l0,0c0,0,0,0,0,0l-10.6,23C52.8,39.6,52.8,39.7,52.8,39.9z"/>
<path class="st0" d="M57.5,14.5c0.2,0.2,0.4,0.5,0.5,0.8c0.3,0.8,0.2,1.7,0,2.7c-0.1,0.5-0.2,1-0.4,1.5c-0.1,0.2-0.1,0.4-0.2,0.5
	c-0.1,0.3-0.2,0.6-0.4,0.9c-1.4,2.8-5.1,7.6-13.8,7.9c0,0,0,0,0,0l-3.6,7.5c2.3,0.5,6.3,1.8,9.8,4.5l11.8-25.6
	c0.2-0.4,0.3-0.8,0.4-1.3c0.4-2.3-0.7-4.7-3-5.7C57.8,8,57,7.8,56.3,7.8c-1.6,0-3.1,0.7-4.1,2c-0.3,0.3-0.5,0.7-0.7,1.1c0,0,0,0,0,0
	l0,0l0,0L50,14.2h7.2L57.5,14.5z"/>
<path class="st0" d="M43.6,14.2h1.3H47l2-4.3c0.2-0.4,0.3-0.8,0.4-1.3c0.4-2.3-0.7-4.7-3-5.7c-0.7-0.3-1.4-0.5-2.2-0.5
	c-1.6,0-3.1,0.7-4.1,2c-0.3,0.3-0.5,0.7-0.7,1.1c0,0,0,0,0,0l-4,8.8h4.4H43.6z"/>
<path class="st0" d="M81.1,34c0-0.6-0.3-1.8-0.3-1.8c-0.7-2-2.7-3.5-5-3.5c-0.5,0-0.9,0.1-1.4,0.2c-0.8,0.2-1.5,0.6-2,1.1
	c-0.7,0.6-1.2,1.3-1.5,2.2c0,0,0,0,0,0l-6.6,14.3c0,0-0.3,1.6-0.3,1.8c0.1,1.2,0.8,2.4,2.1,3c0.6,0.3,1.2,0.3,1.8,0.3
	c0.8-0.1,1.6-0.4,2.1-0.9c0.3-0.3,0.5-0.6,0.7-0.9l3.4-7.4l2.4,1.1l-3.3,7.2l0,0C73,50.8,73,50.9,72.9,51c-0.1,0.3-0.3,0.5-0.5,0.8
	c-0.4,0.5-0.8,0.9-1.3,1.3c-1,0.7-2.1,1.1-3.3,1.2c-0.1,0-0.2,0-0.3,0h0c-0.9,0-1.8-0.2-2.6-0.6c-1.2-0.6-2.2-1.5-2.8-2.6
	c-0.3-0.5-0.5-1.1-0.6-1.7c-0.1-0.2-0.1-0.4-0.1-0.7c-0.4,0.2-0.8,0.4-1.3,0.5c-0.7,0.2-1.5,0.4-2.3,0.4c0,0,0,0,0,0
	c-0.9,0-1.5-0.2-2.4-0.5c0.5,1.6,0.8,3.4,0.8,5.4v10h-2.6v-10c0-2.4-0.8-4.4-1.5-6.2c-3.6-8.2-14-9.6-14.5-9.6l-1.8-0.2l5.9-12.2
	h0.8c0.2,0,0.4,0,0.6,0c0.5,0,1,0,1.5-0.1c5.1-0.5,7.8-2.9,9.3-4.9c0.1-0.2,0.2-0.4,0.3-0.5c0.3-0.4,0.5-0.8,0.7-1.2
	c0.2-0.4,0.4-0.9,0.5-1.3c0.2-0.6,0.3-1.1,0.3-1.5H33.6c-2.6,0-4.9,1.4-6.2,3.5c-0.3,0.5-0.5,1-0.7,1.6l-6.9,14.8l-0.4,0.8
	c-0.3,0.8-0.5,1.8-0.5,2.7c0,1.3,0.4,2.6,1,3.6l0.7,1.1l16.9,22.4v30.5h31.8v0H72l0-22.5L80.4,58c0.1-0.2,0.2-0.4,0.3-0.7
	c0.2-0.6,0.4-1.2,0.4-1.8C81.1,55.5,81.1,34,81.1,34z"/>
</svg>
